<svg xmlns="http://www.w3.org/2000/svg" width="36" height="36" viewBox="0 0 36 36">
    <g fill="#333" fill-opacity=".4" fill-rule="nonzero">
        <path d="M17.874 21.453a3.584 3.584 0 0 0 3.58-3.578c0-.78-.255-1.499-.677-2.086a3.574 3.574 0 0 0-2.9-1.493c-1.195 0-2.252.59-2.903 1.492a3.562 3.562 0 0 0-.677 2.086 3.58 3.58 0 0 0 3.577 3.58zM25.688 13.497v-3.446l-.448.002-2.998.009.011 3.447z"/>
        <path d="M17.875 0C8.019 0 0 8.019 0 17.875c0 9.855 8.019 17.874 17.875 17.874 9.855 0 17.874-8.019 17.874-17.874C35.75 8.019 27.732 0 17.875 0zM28.04 15.789v8.323a3.933 3.933 0 0 1-3.929 3.93H11.638a3.933 3.933 0 0 1-3.929-3.93V11.64a3.933 3.933 0 0 1 3.93-3.93H24.11a3.933 3.933 0 0 1 3.93 3.93v4.15z"/>
        <path d="M23.435 17.875a5.567 5.567 0 0 1-5.56 5.56 5.567 5.567 0 0 1-5.56-5.56c0-.738.147-1.442.409-2.086H9.689v8.323c0 1.076.873 1.947 1.948 1.947H24.11a1.949 1.949 0 0 0 1.948-1.947V15.79h-3.036c.264.644.413 1.348.413 2.086z"/>
    </g>
</svg>
