<svg xmlns="http://www.w3.org/2000/svg" width="36" height="36" viewBox="0 0 36 36">
    <path fill="#333" fill-opacity=".4" fill-rule="nonzero" d="M17.978 0C8.049 0 0 8.05 0 17.978s8.05 17.977 17.978 17.977 17.977-8.05 17.977-17.977C35.955 8.048 27.905 0 17.978 0zm-4.495 26.685H8.99v-15.73h4.494v15.73zM11.375 9.991a2.108 2.108 0 1 1 2.108-2.108 2.108 2.108 0 0 1-2.108 2.108zm17.838 16.694H24.72V16.96c0-1.14-.326-1.938-1.726-1.938-2.321 0-2.768 1.938-2.768 1.938v9.725H15.73v-15.73h4.495v1.503a7.517 7.517 0 0 1 4.494-1.5c1.456 0 4.494.871 4.494 6.139v9.588z"/>
</svg>
