<svg xmlns="http://www.w3.org/2000/svg" width="133" height="133" viewBox="0 0 133 133">
    <g fill="#484848" fill-rule="evenodd">
        <path fill-rule="nonzero" d="M5.2 5.2v122.6h122.6V5.2H5.2zM0 0h133v133H0V0z"/>
        <path d="M20.29 31.634h5.21v3.519h.09c.488-1.097 1.334-2.064 2.537-2.902 1.203-.838 2.627-1.257 4.273-1.257 1.431 0 2.658.252 3.678.754 1.02.503 1.858 1.165 2.513 1.988a8.04 8.04 0 0 1 1.44 2.833c.304 1.066.457 2.163.457 3.29v13.709h-5.484V41.413c0-.64-.045-1.31-.137-2.01a5.427 5.427 0 0 0-.594-1.897 3.94 3.94 0 0 0-1.257-1.394c-.533-.365-1.241-.548-2.124-.548-.884 0-1.645.175-2.285.525-.64.35-1.165.8-1.577 1.348a5.968 5.968 0 0 0-.936 1.897 7.566 7.566 0 0 0-.32 2.17v12.064H20.29V31.634zm46.072 8.774c0-.701-.099-1.371-.297-2.011a4.602 4.602 0 0 0-.936-1.69 4.573 4.573 0 0 0-1.623-1.166c-.655-.29-1.424-.434-2.307-.434-1.645 0-3.039.495-4.181 1.485-1.143.99-1.775 2.262-1.897 3.816h11.241zm5.484 2.467v.731c0 .244-.015.488-.046.731H55.121a5.431 5.431 0 0 0 2.01 3.862 6.935 6.935 0 0 0 1.966 1.12 6.454 6.454 0 0 0 2.285.41c1.37 0 2.528-.25 3.472-.753a6.505 6.505 0 0 0 2.331-2.08l3.656 2.925c-2.163 2.924-5.301 4.387-9.414 4.387-1.706 0-3.275-.267-4.706-.8-1.432-.533-2.674-1.287-3.725-2.262-1.05-.975-1.873-2.17-2.467-3.587-.594-1.417-.891-3.024-.891-4.821 0-1.767.297-3.374.89-4.82.595-1.448 1.41-2.682 2.446-3.702a10.935 10.935 0 0 1 3.678-2.376c1.417-.564 2.947-.846 4.592-.846 1.524 0 2.933.252 4.227.754a9.166 9.166 0 0 1 3.359 2.24c.944.99 1.683 2.223 2.216 3.7.533 1.478.8 3.207.8 5.187zm6.897-11.241h5.94l4.57 15.72h.092l4.707-15.72H99.9l4.752 15.72h.091l4.661-15.72h5.712l-7.585 21.934h-5.575l-4.98-15.354h-.092L91.95 53.568h-5.575l-7.632-21.934zM46.474 79.994c1.432 0 2.658.252 3.678.754 1.021.503 1.859 1.165 2.514 1.988a8.04 8.04 0 0 1 1.44 2.833c.304 1.066.456 2.163.456 3.29v13.709H49.08V90.413c0-.64-.046-1.31-.137-2.01a5.427 5.427 0 0 0-.595-1.897 3.94 3.94 0 0 0-1.256-1.394c-.533-.365-1.242-.548-2.125-.548-.853 0-1.584.183-2.193.548a4.79 4.79 0 0 0-1.508 1.417 6.065 6.065 0 0 0-.869 1.942 8.564 8.564 0 0 0-.274 2.125v11.972H34.64V89.316c0-1.37-.328-2.505-.983-3.404s-1.683-1.348-3.084-1.348c-.823 0-1.539.175-2.148.525-.61.35-1.104.8-1.485 1.348-.38.549-.67 1.18-.868 1.897a8.107 8.107 0 0 0-.297 2.17v12.064H20.29V80.634h5.21v3.519h.09a6.498 6.498 0 0 1 .983-1.554c.412-.488.899-.93 1.463-1.325a6.964 6.964 0 0 1 1.942-.937c.73-.229 1.538-.343 2.422-.343 1.706 0 3.122.381 4.25 1.143a7.583 7.583 0 0 1 2.604 3.016c.731-1.34 1.706-2.37 2.924-3.085 1.22-.716 2.65-1.074 4.296-1.074zm15.51 11.516c0-1.737.312-3.313.937-4.73.624-1.417 1.47-2.627 2.536-3.633 1.066-1.005 2.33-1.782 3.793-2.33a13.164 13.164 0 0 1 4.66-.823c1.646 0 3.2.274 4.662.823 1.462.548 2.726 1.325 3.792 2.33 1.067 1.006 1.912 2.216 2.537 3.633.624 1.417.936 2.993.936 4.73 0 1.736-.312 3.32-.936 4.752-.625 1.432-1.47 2.658-2.537 3.678-1.066 1.021-2.33 1.82-3.792 2.4a12.548 12.548 0 0 1-4.661.868c-1.645 0-3.199-.29-4.661-.868-1.463-.58-2.727-1.379-3.793-2.4-1.066-1.02-1.912-2.246-2.536-3.678-.625-1.432-.937-3.016-.937-4.752zm5.575 0c0 .853.13 1.706.388 2.559a7.047 7.047 0 0 0 1.166 2.284 6.1 6.1 0 0 0 1.965 1.645c.792.427 1.736.64 2.833.64 1.096 0 2.04-.213 2.833-.64a6.1 6.1 0 0 0 1.965-1.645 7.047 7.047 0 0 0 1.165-2.284 8.77 8.77 0 0 0 .388-2.56c0-.852-.129-1.698-.388-2.536a7.088 7.088 0 0 0-1.165-2.262 5.852 5.852 0 0 0-1.965-1.622c-.792-.411-1.737-.617-2.833-.617-1.097 0-2.041.206-2.833.617a5.852 5.852 0 0 0-1.965 1.622 7.088 7.088 0 0 0-1.166 2.262 8.544 8.544 0 0 0-.388 2.537zm25.883-10.876h5.21v3.519h.09c.488-1.097 1.334-2.064 2.537-2.902 1.203-.838 2.627-1.257 4.273-1.257 1.431 0 2.658.252 3.678.754 1.02.503 1.858 1.165 2.513 1.988a8.04 8.04 0 0 1 1.44 2.833c.304 1.066.457 2.163.457 3.29v13.709h-5.484V90.413c0-.64-.045-1.31-.137-2.01a5.427 5.427 0 0 0-.594-1.897 3.94 3.94 0 0 0-1.257-1.394c-.533-.365-1.241-.548-2.124-.548-.884 0-1.645.175-2.285.525-.64.35-1.165.8-1.577 1.348a5.968 5.968 0 0 0-.936 1.897 7.566 7.566 0 0 0-.32 2.17v12.064h-5.484V80.634z"/>
    </g>
</svg>
